<svg xmlns="http://www.w3.org/2000/svg" width="512" height="512" viewBox="0 0 512 512">
  <defs>
    <style>
      .cls-1 {
        fill: #723f8d;
      }

      .cls-2, .cls-4, .cls-5 {
        fill: #fff;
      }

      .cls-2, .cls-4 {
        fill-rule: evenodd;
      }

      .cls-3 {
        fill: #0095d8;
      }

      .cls-3, .cls-4 {
        fill-opacity: 0;
        stroke: #fff;
        stroke-linejoin: round;
        stroke-width: 10px;
      }
    </style>
  </defs>
  <g id="complete-the-sentence">
    <rect class="cls-1" width="512" height="512" rx="110" ry="110"/>
    <g>
      <path class="cls-2" d="M9359.27,158.62c-43.52,0-11.05.04-54.57-.032-13.52-.023-23.41-9.426-23.49-21.959-0.07-12.658,9.67-22.237,23.13-22.272,38.23-.1,16.45-0.046,54.68-0.046" transform="translate(-9180)"/>
      <path id="Shape_4_copy_2" data-name="Shape 4 copy 2" class="cls-2" d="M9512.23,158.62c43.52,0,11.05.04,54.57-.032,13.52-.023,23.41-9.426,23.49-21.959,0.07-12.658-9.67-22.237-23.13-22.272-38.23-.1-16.45-0.046-54.68-0.046" transform="translate(-9180)"/>
      <rect class="cls-3" x="199" y="114" width="113" height="44"/>
      <path id="Shape_4_copy" data-name="Shape 4 copy" class="cls-4" d="M9359.27,238.62c-43.52,0-11.05.04-54.57-.032-13.52-.023-23.41-9.426-23.49-21.959-0.07-12.658,9.67-22.237,23.13-22.272,38.23-.1,16.45-0.046,54.68-0.046" transform="translate(-9180)"/>
      <path id="Shape_4_copy_3" data-name="Shape 4 copy 3" class="cls-2" d="M9512.23,238.62c43.52,0,11.05.04,54.57-.032,13.52-.023,23.41-9.426,23.49-21.959,0.07-12.658-9.67-22.237-23.13-22.272-38.23-.1-16.45-0.046-54.68-0.046" transform="translate(-9180)"/>
      <rect id="Rectangle_2_copy" data-name="Rectangle 2 copy" class="cls-5" x="199" y="194" width="113" height="44"/>
      <path id="Shape_4_copy_4" data-name="Shape 4 copy 4" class="cls-2" d="M9359.27,318.62c-43.52,0-11.05.04-54.57-.032-13.52-.023-23.41-9.426-23.49-21.959-0.07-12.658,9.67-22.237,23.13-22.272,38.23-.1,16.45-0.046,54.68-0.046" transform="translate(-9180)"/>
      <path id="Shape_4_copy_4-2" data-name="Shape 4 copy 4" class="cls-4" d="M9512.23,318.62c43.52,0,11.05.04,54.57-.032,13.52-.023,23.41-9.426,23.49-21.959,0.07-12.658-9.67-22.237-23.13-22.272-38.23-.1-16.45-0.046-54.68-0.046" transform="translate(-9180)"/>
      <rect id="Rectangle_2_copy_2" data-name="Rectangle 2 copy 2" class="cls-5" x="199" y="274" width="113" height="44"/>
      <path id="Shape_4_copy_5" data-name="Shape 4 copy 5" class="cls-2" d="M9359.27,398.62c-43.52,0-11.05.04-54.57-.032-13.52-.023-23.41-9.426-23.49-21.959-0.07-12.658,9.67-22.237,23.13-22.272,38.23-.1,16.45-0.046,54.68-0.046" transform="translate(-9180)"/>
      <path id="Shape_4_copy_5-2" data-name="Shape 4 copy 5" class="cls-2" d="M9512.23,398.62c43.52,0,11.05.04,54.57-.032,13.52-.023,23.41-9.426,23.49-21.959,0.07-12.658-9.67-22.237-23.13-22.272-38.23-.1-16.45-0.046-54.68-0.046" transform="translate(-9180)"/>
      <rect id="Rectangle_2_copy_3" data-name="Rectangle 2 copy 3" class="cls-3" x="199" y="354" width="113" height="44"/>
    </g>
  </g>
</svg>
