<svg xmlns="http://www.w3.org/2000/svg" width="512" height="512" viewBox="0 0 512 512">
  <defs>
    <style>
      .cls-1 {
        fill: #914a5c;
      }

      .cls-2 {
        fill: #fff;
        fill-rule: evenodd;
      }
    </style>
  </defs>
  <g id="date">
    <rect class="cls-1" width="512" height="512" rx="110" ry="110"/>
    <path class="cls-2" d="M6840.99,210.16H7135.5v6.245q0,78.377-.01,156.753c-0.01,19.466-10.87,30.371-30.26,30.374q-117.075.021-234.16,0c-19.03,0-30.07-11-30.07-29.98q-0.045-78.664-.01-157.329V210.16Zm82.93,45.794c-2.48,0-4.97-.024-7.46,0-8.13.093-11.07,2.99-11.17,11.044-0.03,2.682,0,5.364,0,8.046-0.02,17.416.53,17.967,18.05,17.967,18.69,0,18.94-.251,18.94-18.823C6942.28,256.387,6941.84,255.945,6923.92,255.954Zm82.81,18.7c0-2.49.03-4.981,0-7.471-0.11-8.176-2.99-11.122-11-11.22-2.68-.034-5.36,0-8.03-0.008-17.42-.024-17.98.539-17.96,18.059,0.03,18.846.18,19,18.75,19C7006.28,293.017,7006.74,292.548,7006.73,274.653Zm46.15-18.7c-2.48,0-4.97-.023-7.46,0-8.14.092-11.1,2.993-11.21,11.012-0.04,2.682-.01,5.364-0.01,8.047,0.01,17.466.51,17.964,18.03,18,18.72,0.032,19-.25,18.97-18.78C7071.17,256.35,7070.77,255.956,7052.88,255.953Zm-110.6,83.355c0-18.464-.28-18.755-18.39-18.784-18.33-.03-18.63.277-18.61,18.547,0.03,18.291.25,18.51,18.66,18.512C6941.82,357.586,6942.28,357.12,6942.28,339.308Zm45.44,18.272c18.79,0.033,19.05-.225,19.02-18.73-0.03-17.93-.42-18.325-18.27-18.329-18.53,0-18.73.2-18.73,19.015C6969.75,357.051,6970.24,357.55,6987.72,357.58Zm83.47-18.223c0.01-18.49-.32-18.836-18.33-18.836-18.35,0-18.66.3-18.66,18.508,0,18.253.31,18.559,18.62,18.545C7070.79,357.562,7071.18,357.167,7071.19,339.357Zm64.31-148.122H6840.88c0.75-9.678-1.64-19.442,2.24-28.821,4.59-11.109,13.32-16.582,25.11-16.917,10.34-.293,20.7-0.07,31.06-0.075,1.87,0,3.74,0,6.16,0,0-6.281-.07-11.993.02-17.7,0.16-10.877,7.95-19.068,18.12-19.173,10.41-.108,18.36,8.171,18.51,19.362,0.08,5.55.01,11.1,0.01,17.085h92.26c0-5.4-.03-10.887,0-16.374,0.08-11.7,7.8-20.117,18.39-20.073s18.18,8.395,18.28,20.185c0.04,5.339,0,10.678,0,16.689,11.14,0,21.81,0,32.48,0,21.82-.007,31.97,10.183,31.98,32.109v13.707Z" transform="translate(-6732)"/>
  </g>
</svg>
