<svg xmlns="http://www.w3.org/2000/svg" width="512" height="512" viewBox="0 0 512 512">
  <defs>
    <style>
      .cls-1 {
        fill: #4f565e;
      }

      .cls-2 {
        fill: #fff;
        fill-rule: evenodd;
      }
    </style>
  </defs>
  <g id="dropdown">
    <rect class="cls-1" width="512" height="512" rx="110" ry="110"/>
    <path class="cls-2" d="M7533.05,323.707c-31.64,0-63.29-.08-94.93.033-16.2.058-27.87-6.7-33.79-22a34.606,34.606,0,0,1-2.19-12.142c-0.14-22.447,0-44.9.12-67.344,0.08-15.706,8.72-27.941,23.52-32.777a37.172,37.172,0,0,1,11.35-1.323c65.63-.033,131.25.088,196.87-0.037,5.3-.01,6.41,1.994,6.4,6.722-0.15,40.748-.1,81.5-0.14,122.245-0.01,6.475-.19,6.715-6.78,6.723q-50.22.06-100.43,0.018v-0.12Zm-11.74-84.776c-20.96,0-41.92.079-62.88-.069-4.05-.028-5.66,1.165-5.53,5.381,0.27,8.132.2,16.28,0.05,24.418-0.05,3.206,1.05,4.384,4.32,4.379q63.87-.111,127.75.009c3.67,0.008,4.51-1.5,4.44-4.771-0.15-7.14-.01-14.286-0.02-21.429,0-7.913-.02-7.911-7.75-7.91Q7551.5,238.941,7521.31,238.931Zm140.75,16.862c0-20.619.09-41.238-.08-61.856-0.04-4.529,1.33-5.942,6.04-5.908q46.95,0.346,93.92.094c12.74-.065,22.99,4.369,30.35,14.892a31.88,31.88,0,0,1,5.53,18.815c0.02,22.778-.04,45.558.09,68.336,0.09,14.459-10.33,31.766-30.07,33.088-11.11.745-22.3,0.471-33.45,0.5-21.98.068-43.96-.078-65.95,0.124-4.73.044-6.45-1.378-6.4-6.237,0.21-20.616.09-41.235,0.09-61.853h-0.07Zm93.18-16.33h-50.58c8.7,11.555,16.68,22.16,25.3,33.6C7738.52,261.682,7746.5,251.081,7755.24,239.463Z" transform="translate(-7344)"/>
  </g>
</svg>
