<svg xmlns="http://www.w3.org/2000/svg" width="512" height="512" viewBox="0 0 512 512">
  <defs>
    <style>
      .cls-1 {
        fill: #bf5372;
      }

      .cls-2 {
        fill: #fff;
        fill-rule: evenodd;
      }
    </style>
  </defs>
  <g id="email">
    <rect class="cls-1" width="512" height="512" rx="110" ry="110"/>
    <path class="cls-2" d="M8341.96,152.71c-10.05,9.568-20.29,18.943-30.11,28.744-25.58,25.541-50.97,51.28-76.45,76.92-14.89,14.977-32.92,15-47.68.139q-50.205-50.578-100.42-101.153c-1.79-1.8-3.48-3.686-7.11-7.537,8.94-1.948,16.2-4.872,23.48-4.907q107.685-.522,215.37-0.015c7.33,0.034,14.66,2.924,21.98,4.489C8341.34,150.5,8341.65,151.6,8341.96,152.71Zm-259.4,206.529q47.895-40.335,96.02-80.849c21.84,15.515,43.66,15.559,65.79,0q48.21,40.6,96.3,81.1c-0.08.839-.16,1.678-0.25,2.518-7.69,1.429-15.38,4.065-23.09,4.1q-105.735.471-211.48-.009c-7.73-.035-15.46-2.585-23.19-3.968C8082.63,361.164,8082.59,360.2,8082.56,359.239Zm-17.69-192.332c33.68,32.862,66.34,64.72,99.47,97.034-32.44,27.311-64.41,54.234-98.32,82.783-2.08-8.273-5.28-15.233-5.35-22.223q-0.675-68.976-.01-137.96C8060.72,179.841,8063.46,173.164,8064.87,166.907Zm193.71,97c33.13-32.276,65.81-64.105,99.41-96.837,1.39,6.42,4.25,13.705,4.32,21.016q0.645,67.415,0,134.835c-0.07,7.4-3.02,14.779-5.05,24C8323.27,318.331,8291.18,291.328,8258.58,263.908Z" transform="translate(-7956)"/>
  </g>
</svg>
