<svg xmlns="http://www.w3.org/2000/svg" width="512" height="512" viewBox="0 0 512 512">
  <defs>
    <style>
      .cls-1 {
        fill: #723f8d;
      }

      .cls-2 {
        fill: #fff;
        fill-rule: evenodd;
      }
    </style>
  </defs>
  <g id="file-upload">
    <rect class="cls-1" width="512" height="512" rx="110" ry="110"/>
    <path class="cls-2" d="M4587.05,191.786a41.54,41.54,0,0,1,31.39-10,40.321,40.321,0,0,1,23.86,10.131c7.9,6.956,12.97,15.506,14.41,26.038a42,42,0,0,1-6.22,28.949c3.21,1.114,6.26,2.048,9.22,3.213,26.03,10.257,41.99,37.038,39.81,65-2.17,27.781-25.13,52.958-53.06,57.14a75.805,75.805,0,0,1-11.13.826c-60,.05-120.01-0.135-180.01.1-39.26.151-66.79-29.325-73.12-57.327a74.6,74.6,0,0,1,39.47-83.668c1.63-.816,1.58-1.863,1.49-3.237a82.272,82.272,0,0,1,5.83-36.812c11-27.082,40.47-55.547,83.13-52.833,34.58,2.2,59.25,19.589,74.11,50.924C4586.45,190.689,4586.7,191.126,4587.05,191.786ZM4550.67,266.7h2.99c11.04,0,22.07-.033,33.1.024,2.7,0.014,4.92-.682,6.04-3.294s0.11-4.694-1.82-6.615q-28.6-28.511-57.14-57.079c-2.88-2.876-5.91-2.887-8.84-.05-2.51,2.44-4.96,4.949-7.44,7.426q-24.765,24.746-49.54,49.488c-2,1.992-3.12,4.241-1.97,7.048,1.13,2.75,3.52,3.076,6.13,3.068,11.18-.037,22.36.038,33.54-0.065,2.03-.018,2.47.618,2.46,2.538-0.07,18.284-.05,36.568-0.04,54.853,0,4.547,1.85,6.411,6.36,6.418q14.64,0.023,29.29,0c5.12,0,6.87-1.741,6.88-6.822V266.7Z" transform="translate(-4284)"/>
  </g>
</svg>
