<svg xmlns="http://www.w3.org/2000/svg" width="512" height="512" viewBox="0 0 512 512">
  <defs>
    <style>
      .cls-1 {
        fill: #3e85ba;
      }

      .cls-2 {
        fill: #fff;
        fill-rule: evenodd;
      }
    </style>
  </defs>
  <g id="fill-in-blank">
    <rect class="cls-1" width="512" height="512" rx="110" ry="110"/>
    <path class="cls-2" d="M3883.38,309.261c-14.12-14.125-28.55-28.562-42.76-42.781q54.675-54.665,109.44-109.4c14.01,14.087,28.47,28.614,42.66,42.885C3956.58,236.1,3920.01,272.646,3883.38,309.261Zm163.08,57.47v29.905H3808.99V366.731h237.47Zm-88.77-218.209c10.82-10.794,21.85-21.8,32.59-32.523,14.47,14.5,29,29.077,43.42,43.532-10.6,10.582-21.69,21.661-32.54,32.5Q3979.605,170.465,3957.69,148.522Zm-81.02,167.727c-20.58,6.822-41.92,13.9-64.18,21.284q10.935-33.094,21.24-64.241C3848.01,287.574,3862.27,301.841,3876.67,316.249Z" transform="translate(-3672)"/>
  </g>
</svg>
