<svg xmlns="http://www.w3.org/2000/svg" width="512" height="512" viewBox="0 0 512 512">
  <defs>
    <style>
      .cls-1 {
        fill: #2a9d8f;
      }

      .cls-2 {
        fill: #fff;
        fill-rule: evenodd;
      }
    </style>
  </defs>
  <g id="matrix">
    <rect class="cls-1" width="512" height="512" rx="110" ry="110"/>
    <path class="cls-2" d="M5906.23,255.586c0,6.9.3,13.807-.06,20.683-0.6,11.285-8.16,18.521-19.4,18.668q-19.02.25-38.05-.016c-11.42-.172-19.14-7.036-19.62-18.446-0.57-13.541-.58-27.148.05-40.685,0.53-11.395,8.27-18.082,19.79-18.229,12.68-.161,25.37-0.186,38.05,0,11.41,0.166,18.79,7.35,19.26,18.675,0.27,6.44.05,12.9,0.05,19.352h-0.07Zm-207.21.018c0,6.9.26,13.8-.06,20.685-0.51,10.921-7.95,18.4-18.74,18.615q-19.7.4-39.39-.013c-10.44-.207-18.2-6.718-18.74-17.116a401.317,401.317,0,0,1,.05-43.322c0.58-10.327,8.45-16.7,18.95-16.872q19.35-.321,38.72,0c11.73,0.195,18.95,7.572,19.25,19.341,0.16,6.225.03,12.458,0.03,18.687h-0.07Zm26.43,0.624c0-6.229-.1-12.46.03-18.686,0.25-11.975,7.74-19.765,19.55-19.963,12.9-.216,25.81-0.243,38.71.011,11.23,0.221,18.86,7.764,19.1,18.947q0.42,19.679.01,39.372c-0.25,11.089-8.08,18.812-19.13,19.009q-19.35.345-38.72-.009c-11.5-.2-19.16-7.895-19.51-19.328C5725.29,269.135,5725.46,262.679,5725.45,256.228ZM5699,152.074c0,6.89.26,13.793-.06,20.668-0.51,10.718-7.66,18.039-18.22,18.276q-20.325.456-40.68-.043c-9.86-.241-17.31-6.526-17.85-16.389a405.136,405.136,0,0,1-.02-43.944c0.54-9.921,8.02-16.352,18.42-16.741,13.32-.5,26.69-0.543,40.01.011,11.55,0.48,18.18,7.955,18.47,19.49,0.15,6.22.02,12.448,0.02,18.672H5699Zm168.12,38.972c-6.67,0-13.35.244-20.01-.057-9.84-.446-17.23-6.694-17.71-16.528-0.71-14.625-.65-29.331,0-43.961,0.41-9,6.82-15.68,15.84-16.151a424,424,0,0,1,44.63-.065c9.89,0.528,16.06,7.909,16.32,17.892,0.35,13.33.39,26.686-.02,40.013-0.36,11.822-7.85,18.7-19.7,18.931-6.44.127-12.9,0.022-19.35,0.022v-0.1Zm-168.1,168.7c0,6.67.24,13.35-.06,20.006-0.47,10.493-7.15,17.96-17.46,18.326-14.21.5-28.46,0.411-42.67-.129-8.97-.341-16-6.53-16.49-15.474a432.653,432.653,0,0,1-.08-45.27c0.45-9,7.15-15.357,16.21-15.773,14.63-.671,29.34-0.771,43.97-0.015,10.2,0.528,16.26,8,16.59,18.319,0.21,6.663.04,13.339,0.04,20.01h-0.05Zm26.44,0.093c0-6.447-.13-12.9.03-19.341,0.28-10.829,6.66-18.6,17.36-19.156a413.683,413.683,0,0,1,42.64-.018c10.74,0.552,17.2,8.277,17.38,19.136,0.21,12.891.24,25.792-.01,38.681-0.21,10.925-7.45,18.676-18.31,19.026-13.55.436-27.13,0.441-40.68-.06-11.26-.417-18.15-8.183-18.39-19.594C5725.34,372.3,5725.45,366.068,5725.46,359.843Zm141.83,38.37c-6.67,0-13.36.325-20.01-.074-10.6-.635-17.62-7.1-18.09-17.7-0.6-13.754-.59-27.571-0.03-41.327,0.43-10.473,6.9-17.283,17.23-17.786,14.19-.691,28.46-0.715,42.65-0.024,10.57,0.515,16.96,7.848,17.19,18.5,0.3,13.112.34,26.244-.05,39.351-0.36,11.845-7.59,18.695-19.54,19.148-6.44.244-12.9,0.043-19.35,0.043v-0.136Zm-64.37-245.8c0,6.447.16,12.9-.04,19.34-0.35,11.551-7.87,19.136-19.41,19.325q-19.335.318-38.69-.036c-11.6-.231-19.08-7.8-19.27-19.425q-0.33-19.337.02-38.681c0.2-10.4,6.72-18.207,17.07-18.75a403.158,403.158,0,0,1,43.31.029c10.37,0.575,16.63,8.353,16.97,18.858C5803.08,139.517,5802.91,145.97,5802.92,152.417Z" transform="translate(-5508)"/>
  </g>
</svg>
