<svg xmlns="http://www.w3.org/2000/svg" width="512" height="512" viewBox="0 0 512 512">
  <defs>
    <style>
      .cls-1 {
        fill: #665f92;
      }

      .cls-2 {
        fill: #fff;
        fill-rule: evenodd;
      }
    </style>
  </defs>
  <g id="multiple-choice">
    <rect class="cls-1" width="512" height="512" rx="110" ry="110"/>
    <path class="cls-2" d="M937.1,185.761c-21.74,0-43.48.087-65.218-.03-15.349-.083-24.549-8.163-24.158-20.86,0.375-12.19,9.241-19.545,24.157-19.573q66.471-.126,132.948,0c14.89,0.028,23.81,7.413,24.19,19.571,0.39,12.616-8.92,20.782-24.19,20.862C982.252,185.847,959.676,185.761,937.1,185.761Zm1.262,105.587c-22.154,0-44.309.091-66.462-.031-15.331-.084-24.563-8.19-24.175-20.852,0.373-12.172,9.262-19.55,24.159-19.579q66.462-.128,132.925,0c15.3,0.03,24.59,8.2,24.2,20.817-0.38,12.134-9.33,19.535-24.19,19.614C982.672,291.436,960.517,291.348,938.363,291.348Zm-0.943,105.59c-21.318,0-42.636.047-63.954-.015-16.609-.048-25.938-7.566-25.74-20.559,0.193-12.585,9.25-19.88,25.1-19.9q65.833-.089,131.672.007c15.51,0.028,24.71,7.877,24.51,20.511-0.2,12.542-9.33,19.879-25.13,19.936C981.728,397,959.574,396.938,937.42,396.938ZM752.7,396.923c-16.608-.048-25.939-7.566-25.74-20.559,0.193-12.585,9.25-19.88,25.1-19.9,43.89-.059-27.941-0.071,15.948.007,15.514,0.028,24.71,7.877,24.511,20.511-0.2,12.542-9.327,19.879-25.126,19.936M753.092,157.2c11.342-11.783,21.6-22.778,32.236-33.393,10.824-10.8,23.232-11.521,31.887-2.346,8.32,8.819,7.3,20.43-3.109,31.006q-22.012,22.353-44.376,44.362c-12.506,12.316-22.307,12.384-34.662.412-7.208-6.985-14.408-14-21.259-21.329-9.191-9.833-9.308-21.921-.715-30.088,8.235-7.825,19.642-7.386,29.257,1.207C745.43,149.784,748.357,152.706,753.092,157.2Zm0.192,105.869c11.068-11.671,21.2-22.735,31.754-33.38,10.915-11.008,23.061-11.91,31.885-2.933,8.8,8.953,7.649,20.726-3.4,31.9-14.708,14.871-29.458,29.7-44.4,44.338-11.9,11.65-21.829,11.6-33.746.117-7.227-6.966-14.388-14.016-21.272-21.318-9.345-9.91-9.708-21.762-1.3-30.089,8.384-8.3,20.035-7.735,30.141,1.51C745.71,255.747,748.377,258.386,753.284,263.069Z" transform="translate(-612)"/>
  </g>
</svg>
