<svg xmlns="http://www.w3.org/2000/svg" width="512" height="512" viewBox="0 0 512 512">
  <defs>
    <style>
      .cls-1 {
        fill: #5f4c4e;
      }

      .cls-2 {
        fill: #fff;
        fill-rule: evenodd;
      }
    </style>
  </defs>
  <g id="numerical-value">
    <rect class="cls-1" width="512" height="512" rx="110" ry="110"/>
    <path class="cls-2" d="M2751.99,238.123h44.02c0,2.455-.03,4.787,0,7.117,0.15,10.29.28,20.58,0.5,30.868,0.09,4.266,2.34,6.9,6.65,7.105s7.28-2.269,7.36-6.411c0.28-13.092.53-26.215-.12-39.282-0.32-6.377-4.69-10.56-11.5-11.277-4.18-.44-8.38-0.783-12.98-1.208v-25.19c4.57,0,9.16.3,13.7-.066,7.89-.631,10.9-3.541,11.29-11.415,0.38-7.645.19-15.326,0.03-22.986-0.1-4.87-2.4-8.267-7.72-8.113-5.17.15-6.75,3.879-6.84,8.309-0.15,6.825-.04,13.654-0.04,20.957h-43.49c-0.17-11.781-.87-23.532,2.89-35.118,3.64-11.192,12.26-16.328,22.67-18.7a102.7,102.7,0,0,1,46.27.2c14.8,3.407,23.39,13.016,26.4,27.5a95.2,95.2,0,0,1,1.96,19.779c-0.05,12.289-4.69,22.354-18.28,28.371,14.73,4.993,19.09,15.45,19.25,27.878,0.18,13.272.51,26.7-1.24,39.8-2.48,18.579-13.47,28.781-32.66,32.414-13.47,2.549-27.03,2.331-40.16-2.019-13.59-4.5-23.52-13.1-25.29-27.963C2753.08,265.37,2752.84,251.9,2751.99,238.123Zm101.82,101.149V382h-289.5V339.272h289.5ZM2680.99,192.33h-38.57c-0.55-12-1.09-23.727,2.96-34.894,4.03-11.1,11.53-19.47,22.94-23.462a64.016,64.016,0,0,1,45.07.756c21.29,8.219,31.12,28.243,26.79,51.569-3.29,17.695-12.42,32.664-21.83,47.5-8.93,14.091-18.15,28-27.91,43.018h46.32V306.3h-94.49c0.67-11.151-2.02-22.181,4.99-33.322,15.77-25.075,30.37-50.9,44.93-76.714,3.59-6.382,5.69-13.767,7.49-20.936,0.93-3.681.12-7.993-.68-11.858-0.89-4.263-4.23-6.213-8.56-6.171-4.44.043-7.25,2.367-8.19,6.625a48.365,48.365,0,0,0-1.21,8.95C2680.86,179.107,2680.99,185.352,2680.99,192.33Zm-54.02,114.175h-43.03V293.778c-0.01-31.477.06-62.955-.08-94.432-0.06-14.008-3-16.811-17.18-17.375-3.82-.152-7.65-0.023-12.48-0.023,0-6.353-.24-12.151.18-17.9,0.09-1.3,2.25-3.148,3.77-3.534,16.46-4.187,30.87-11.715,42.09-24.773a5.536,5.536,0,0,1,3.47-2c7.62-.18,15.25-0.092,23.26-0.092V306.505Z" transform="translate(-2448)"/>
  </g>
</svg>
