<svg xmlns="http://www.w3.org/2000/svg" width="512" height="512" viewBox="0 0 512 512">
  <defs>
    <style>
      .cls-1 {
        fill: #3e85ba;
      }

      .cls-2 {
        fill: #fff;
        fill-rule: evenodd;
      }
    </style>
  </defs>
  <g id="phone-number">
    <rect class="cls-1" width="512" height="512" rx="110" ry="110"/>
    <path class="cls-2" d="M8749.51,253.439c11.69,25.526,28.58,45.714,51.1,61.154a166.031,166.031,0,0,0,18.9,10.979c1.56,0.791,4.74.166,6.23-1,3.58-2.814,6.65-6.3,9.86-9.578,6.39-6.52,13.98-8.782,22.87-6.576,17.2,4.269,34.45,8.38,51.59,12.89,12.19,3.207,19.21,14.982,18.43,29.877a51.061,51.061,0,0,1-12.76,31.232c-19.27,22.47-43.47,27.71-71.38,20.2-26.92-7.242-50.29-21.175-71.92-38.133-35.4-27.746-65.15-60.372-84.69-101.3-9.83-20.6-15.37-42.171-13.01-65.31,2.84-27.745,36.37-51.737,62.74-44.678,9.12,2.44,15.42,7.85,18.39,17.011,4.69,14.448,9.35,28.908,14.38,43.235,3.69,10.481,1.45,19.163-6.56,26.625C8758.96,244.465,8754.29,248.925,8749.51,253.439Zm224.72,11.329c0,2.556.03,3.806,0,5.055-0.21,8.935-6.22,15.5-14.46,15.788-8.42.294-15.22-6.255-15.38-15.465-0.32-19.2-3.77-37.779-12.24-55.025-24.59-50.046-64.92-76.691-120.84-79.453-10.73-.529-17.68-6.415-17.41-15.439,0.27-8.843,7.2-14.5,17.66-14.428,82.76,0.595,154.04,66.031,161.69,148.445C8973.62,258.183,8973.99,262.12,8974.23,264.768Zm-161.47-98.929c54.59,1.328,100.92,48.286,101.28,102.649,0.06,9.869-5.72,16.763-14.37,17.128-8.81.371-15.19-6.458-15.55-16.628-1.39-39.835-33.03-72-72.11-73.315-11.52-.387-18.35-6.184-18.1-15.349C8794.16,171.092,8801.36,165.561,8812.76,165.839Z" transform="translate(-8568)"/>
  </g>
</svg>
