<svg xmlns="http://www.w3.org/2000/svg" width="512" height="512" viewBox="0 0 512 512">
  <defs>
    <style>
      .cls-1 {
        fill: #b49853;
      }

      .cls-2 {
        fill: #fff;
        fill-rule: evenodd;
      }
    </style>
  </defs>
  <g id="ranking-choice">
    <rect class="cls-1" width="512" height="512" rx="110" ry="110"/>
    <path class="cls-2" d="M6431.27,331.286H6320.7V134.759h110.57V331.286Zm-62.89-109.633v4.268c0.01,12.522-.04,25.045.05,37.566a7.251,7.251,0,0,0,7.08,7.439,7.122,7.122,0,0,0,7.4-7.081c0.1-20.11.06-40.222,0.04-60.333-0.01-3.1-1.56-5.751-4.45-6.347-2.33-.479-5.64-0.253-7.34,1.114a120.421,120.421,0,0,0-12.18,11.945,6.5,6.5,0,0,0-.84,8.1,7.009,7.009,0,0,0,7.65,3.714C6366.52,221.933,6367.26,221.821,6368.38,221.653Zm-173.27-16.685h110.53V331.28H6195.11V204.968Zm61.58,91.252c4.25-4.913,8.28-9.24,11.92-13.878,3.98-5.079,4.86-11.081,3.58-17.274-1.79-8.713-7.38-14.236-15.68-16.933-9.51-3.09-17.99-.6-25.45,5.632-3.77,3.143-4.12,7.433-1.32,10.7s6.66,3.257,10.84.486a19.9,19.9,0,0,1,7.51-3.219,8.4,8.4,0,0,1,9.01,4.343c1.83,3.252,1.06,6.493-1.41,9.092a161.217,161.217,0,0,1-11.87,11.677c-4.51,3.859-9.47,7.182-14.19,10.8a7.011,7.011,0,0,0-2.64,8.1,6.686,6.686,0,0,0,6.79,5.069c10.25,0.083,20.51.145,30.76-.042a7.114,7.114,0,0,0,7.15-7.328,7.491,7.491,0,0,0-7.4-7.2C6261.91,296.115,6259.51,296.22,6256.69,296.22Zm-61.64,79.02V346.461h361.88V375.24H6195.05Zm251.36-145.052h110.53V331.25H6446.41V230.188Zm54,80.656c15.99-.079,25.94-15.561,19.46-30.112a6.119,6.119,0,0,1,.05-4.436c4.4-9.987,1.3-20.877-7.76-26.61-8.93-5.644-22.03-3.979-28.53,3.626a7.193,7.193,0,0,0-.55,9.086c2.57,3.613,6.91,4.06,11,1.133,4.51-3.224,8.85-3.31,11.62-.229,2.34,2.61,1.88,5.637-1.74,10.037-2.13,2.589-2.91,5.369-1.37,8.405,0.78,1.55,2.52,2.7,3.04,4.284,0.69,2.117,1.51,4.943.64,6.617-0.89,1.708-3.74,3.248-5.76,3.292-2.26.05-4.71-1.4-6.79-2.679-3.76-2.316-7.64-2.107-10.25.976-2.59,3.052-2.36,7.212.79,10.212A22.727,22.727,0,0,0,6500.41,310.844Z" transform="translate(-6120)"/>
  </g>
</svg>
