<svg xmlns="http://www.w3.org/2000/svg" width="512" height="512" viewBox="0 0 512 512">
  <defs>
    <style>
      .cls-1 {
        fill: #bf5372;
      }

      .cls-2 {
        fill: #fff;
        fill-rule: evenodd;
      }
    </style>
  </defs>
  <g id="rating">
    <rect class="cls-1" width="512" height="512" rx="110" ry="110"/>
    <path class="cls-2" d="M3316.06,157.3c5.8,0.008,9.99,3.008,12.31,9.076,4.54,11.837,9.08,23.675,13.4,35.591,1.05,2.9,2.57,3.9,5.62,4.193,13.94,1.347,27.86,2.912,41.76,4.613a11.878,11.878,0,0,1,10.43,8.787c1.67,5.366.2,10-3.97,13.629-10.58,9.191-21.18,18.367-31.94,27.335-2.77,2.307-3.62,4.371-2.79,8.016,3.09,13.529,5.75,27.155,8.55,40.748,1.16,5.64-.72,10.172-5.36,13.44-4.41,3.112-9.9,2.9-14.73-.513q-15.285-10.8-30.43-21.8c-1.99-1.452-3.31-1.577-5.38-.066q-15.525,11.313-31.3,22.283c-8.09,5.61-18.45,1.693-20.19-7.683-0.48-2.566.08-5.437,0.64-8.065q4.365-20.355,9.05-40.64a3.616,3.616,0,0,0-1.39-4.188c-10.93-9.285-21.77-18.67-32.69-27.977-2.94-2.507-5.12-5.4-5.51-9.351a12.673,12.673,0,0,1,11.33-14.022q21.36-2.44,42.74-4.667a4.071,4.071,0,0,0,4-3.05c4.43-12.227,8.99-24.408,13.57-36.58C3306.06,160.376,3310.31,157.3,3316.06,157.3ZM3484.3,285.336a10.163,10.163,0,0,1-3.99,8.592c-6.41,5.468-12.7,11.09-19.23,16.412-2.28,1.857-2.84,3.59-2.15,6.406,1.92,7.851,3.54,15.772,5.25,23.673,1.07,4.956-.53,9.234-4.35,11.81s-8.38,2.53-12.59-.333c-5.61-3.813-11.22-7.634-16.69-11.64-2.14-1.565-3.69-1.835-5.98-.116-5.33,4.007-10.9,7.7-16.4,11.476-4.8,3.292-9.08,3.514-13.13.78-3.94-2.668-5.33-6.89-4.1-12.49,1.73-7.9,3.4-15.807,5.24-23.677a4.432,4.432,0,0,0-1.74-5.064c-6.13-5.113-12.09-10.444-18.18-15.612-3.85-3.268-5.76-7.175-4.15-12.178s5.46-7.081,10.44-7.6c8.05-.84,16.09-1.832,24.14-2.567a3.543,3.543,0,0,0,3.47-2.746c2.45-6.78,4.98-13.532,7.54-20.273,2.08-5.469,5.44-8.066,10.32-8.1,5.1-.04,8.48,2.513,10.61,8.127,2.57,6.739,5.11,13.484,7.56,20.263a3.531,3.531,0,0,0,3.48,2.709c8.06,0.736,16.1,1.695,24.14,2.606C3480.51,276.549,3484.33,280.178,3484.3,285.336ZM3166.94,341.6c1.27-5.86,2.22-12.976,4.42-19.68,2.27-6.912,1.03-11.506-5.24-15.514-5.12-3.279-9.38-7.872-14.27-11.553-4.59-3.454-4.58-8.207-3.53-12.746,0.97-4.131,4.6-6.191,8.88-6.671,8.26-.925,16.51-1.93,24.79-2.715a4.207,4.207,0,0,0,4.16-3.254c2.29-6.6,4.82-13.126,7.28-19.669,2.11-5.591,5.58-8.3,10.55-8.3,5.1,0,8.55,2.767,10.62,8.607,2.29,6.486,4.6,12.969,6.79,19.494,0.62,1.841,1.36,2.831,3.55,3.009,8.71,0.7,17.41,1.547,26.09,2.591a9.486,9.486,0,0,1,8.14,6.765c1.5,4.426.64,8.5-2.93,11.658-6.31,5.584-12.66,11.129-19.16,16.5a4.626,4.626,0,0,0-1.78,5.307c1.91,8.192,3.69,16.415,5.46,24.638,1.01,4.695-.65,9.039-4.45,11.455a10.505,10.505,0,0,1-12.32-.156c-5.89-3.982-11.75-8.022-17.51-12.195-1.78-1.293-3.01-1.416-4.87-.065-5.92,4.31-11.98,8.45-18.06,12.546a10.115,10.115,0,0,1-11.18.534C3168.75,350.155,3166.91,346.935,3166.94,341.6Z" transform="translate(-3060)"/>
  </g>
</svg>
