<svg xmlns="http://www.w3.org/2000/svg" width="512" height="512" viewBox="0 0 512 512">
  <defs>
    <style>
      .cls-1 {
        fill: #914a5c;
      }

      .cls-2 {
        fill: #fff;
        fill-rule: evenodd;
      }
    </style>
  </defs>
  <g id="single-choice">
    <rect class="cls-1" width="512" height="512" rx="110" ry="110"/>
    <path id="Shape_17_copy" data-name="Shape 17 copy" class="cls-2" d="M325.1,185.761c-21.74,0-43.48.087-65.218-.03-15.349-.083-24.549-8.163-24.158-20.86,0.375-12.19,9.241-19.545,24.157-19.573q66.471-.126,132.944,0c14.9,0.028,23.813,7.413,24.192,19.571,0.394,12.616-8.914,20.782-24.191,20.862C370.252,185.847,347.676,185.761,325.1,185.761Zm1.262,105.587c-22.154,0-44.309.091-66.462-.031-15.331-.084-24.563-8.19-24.175-20.852,0.373-12.172,9.262-19.55,24.159-19.579q66.462-.128,132.924,0c15.3,0.03,24.593,8.2,24.2,20.817-0.38,12.134-9.329,19.535-24.184,19.614C370.672,291.436,348.517,291.348,326.363,291.348Zm-0.943,105.59c-21.318,0-42.636.047-63.954-.015-16.609-.048-25.938-7.566-25.74-20.559,0.193-12.585,9.25-19.88,25.1-19.9q65.834-.089,131.669.007c15.514,0.028,24.71,7.877,24.511,20.511-0.2,12.542-9.328,19.879-25.126,19.936C369.728,397,347.574,396.938,325.42,396.938ZM140.7,396.923c-16.608-.048-25.939-7.566-25.74-20.559,0.193-12.585,9.25-19.88,25.1-19.9,43.89-.059-27.941-0.071,15.948.007,15.514,0.028,24.71,7.877,24.511,20.511-0.2,12.542-9.327,19.879-25.126,19.936M141.092,157.2c11.342-11.783,21.6-22.778,32.236-33.393,10.824-10.8,23.232-11.521,31.887-2.346,8.32,8.819,7.305,20.43-3.109,31.006q-22.012,22.353-44.376,44.362c-12.506,12.316-22.307,12.384-34.662.412-7.208-6.985-14.408-14-21.259-21.329-9.191-9.833-9.308-21.921-.715-30.088,8.235-7.825,19.642-7.386,29.257,1.207C133.43,149.784,136.357,152.706,141.092,157.2ZM140.7,290.923c-16.608-.048-25.939-7.566-25.74-20.559,0.193-12.585,9.25-19.88,25.1-19.9,43.89-.059-27.941-0.071,15.948.007,15.514,0.028,24.71,7.877,24.511,20.511-0.2,12.542-9.327,19.879-25.126,19.936"/>
  </g>
</svg>
