<svg xmlns="http://www.w3.org/2000/svg" width="512" height="512" viewBox="0 0 512 512">
  <defs>
    <style>
      .cls-1 {
        fill: #c15f46;
      }

      .cls-2 {
        fill: #fff;
        fill-rule: evenodd;
      }
    </style>
  </defs>
  <g id="slider">
    <rect class="cls-1" width="512" height="512" rx="110" ry="110"/>
    <path class="cls-2" d="M5223.33,233.473c-32.04,0-28.13-.172-60.16.145-6.4.064-9.71-1.805-12.75-7.669-12.44-24.031-32.69-36.765-59.78-36.6-26.65.165-46.56,12.871-58.78,36.531-3.01,5.822-6.25,7.885-12.71,7.742-19.14-.424-2.35-0.234-21.5-0.122-16.37.1-26.95,9.187-26.79,22.751s10.64,22.235,27.24,22.314c19.15,0.09,2.35.205,21.5-.084,5.88-.089,9.11,1.551,11.98,7.175,12.28,24.081,32.4,37.042,59.51,37.052s47.31-12.891,59.52-37.012c3.17-6.267,6.98-7.216,13.01-7.2,61.99,0.153,76.04.1,138.03,0.089,3.13,0,6.28.143,9.4-.119,12.75-1.076,21.91-10.328,22.09-22.145,0.18-12.151-9.3-22.157-22.55-22.677-13.56-.532-27.16-0.163-40.74-0.17C5250.35,233.467,5242.83,233.474,5223.33,233.473Zm-132.65.474a22.387,22.387,0,0,1,22.56,21.381c0.43,11.828-9.2,22.193-21.15,22.77A22.089,22.089,0,1,1,5090.68,233.947Z" transform="translate(-4896)"/>
  </g>
</svg>
