<svg xmlns="http://www.w3.org/2000/svg" width="512" height="512" viewBox="0 0 512 512">
  <defs>
    <style>
      .cls-1 {
        fill: #4f565e;
      }

      .cls-2 {
        fill: #fff;
        fill-rule: evenodd;
      }
    </style>
  </defs>
  <g id="text">
    <rect class="cls-1" width="512" height="512" rx="110" ry="110"/>
    <path class="cls-2" d="M2091.27,178.62q-65.28-.007-130.57-0.032c-13.52-.023-23.41-9.426-23.49-21.959-0.07-12.658,9.67-22.237,23.13-22.272,38.23-.1,76.45-0.046,114.68-0.046q74.265,0,148.53.037c11.32,0.015,19.73,6.466,22.5,16.813,2.4,8.958-1.33,19.266-9.79,23.8a32.073,32.073,0,0,1-14.42,3.514C2178.31,178.735,2134.79,178.626,2091.27,178.62Zm1.39,22.146q65.28,0,130.57.031c16.84,0.036,27.74,15.118,21.99,30.068-3.45,8.942-11.54,14.167-22.38,14.179q-60.435.066-120.89,0.027-70.47,0-140.94-.033c-17.27-.034-28.33-15.35-22.22-30.438,3.59-8.895,11.55-13.819,22.61-13.825Q2027.025,200.738,2092.66,200.766Zm-1.05,110.74c-43.75,0-87.5.086-131.26-.045-17.66-.052-28.52-17.168-20.61-32.225,4.54-8.633,12.04-12.081,21.64-12.065q76.335,0.126,152.68.037c36.61,0,73.23-.057,109.84.037,10.96,0.028,19.19,6.393,22.04,16.486,2.53,9.013-.96,19.219-9.4,23.929a31.028,31.028,0,0,1-14.36,3.687C2178.66,311.621,2135.14,311.508,2091.61,311.506Zm-43.87,66.451q-43.17-.007-86.35-0.022c-14.11-.028-24.1-9.192-24.19-21.969-0.08-12.874,9.85-22.29,23.83-22.3q86.685-.063,173.39.016c17.22,0.021,28.32,15.312,22.27,30.379-3.48,8.642-11.54,13.861-21.91,13.882Q2091.265,378.026,2047.74,377.957Z" transform="translate(-1836)"/>
  </g>
</svg>
