<svg xmlns="http://www.w3.org/2000/svg" width="512" height="512" viewBox="0 0 512 512">
  <defs>
    <style>
      .cls-1 {
        fill: #2f806e;
      }

      .cls-2 {
        fill: #fff;
        fill-rule: evenodd;
      }
    </style>
  </defs>
  <g id="yes-no">
    <rect class="cls-1" width="512" height="512" rx="110" ry="110"/>
    <path class="cls-2" d="M1466.43,181.893V330.159c-1.88.181-3.54,0.476-5.2,0.477-32.24.021-64.49,0.155-96.73-.035-41.73-.247-75.58-35.736-74.08-77.374,1.41-38.963,33.43-71.046,72.41-71.662,32.89-.52,65.79-0.136,98.69-0.126C1462.98,181.439,1464.45,181.7,1466.43,181.893ZM1383.01,266.8c-2.84-3.677-4.56-6.206-6.59-8.458a92.322,92.322,0,0,0-6.96-6.785c-5.6-5.053-11.65-5.212-16.05-.521-4.11,4.368-3.8,10.6,1.14,15.581q10.26,10.359,20.89,20.362c5.71,5.381,11.04,5.5,16.54.093q23.79-23.434,47.26-47.19c5.09-5.15,5.22-11.029.9-15.574s-10.86-4.409-16.11.674c-7.14,6.914-14.14,13.98-21.11,21.076C1396.74,252.359,1390.69,258.789,1383.01,266.8Zm116.73-85.4c32.03,0,64.06-.135,96.09.046,40.69,0.23,74.17,34.173,74.09,74.808-0.09,40.275-32.75,73.746-73.15,74.272-32.45.423-64.92,0.114-97.38,0.091a53.74,53.74,0,0,1-5.52-.555V181.4h5.87Zm23.93,90.387c-5.37,5.448-5.67,11.454-1.2,16.032,4.38,4.494,10.8,4.32,16.08-.9,5.06-5,9.75-10.382,15.91-17,5.91,6.4,10.81,12.073,16.11,17.342,4.77,4.729,10.81,4.946,15.14,1.13,4.94-4.343,5.12-10.716.01-15.984-5.24-5.39-10.84-10.422-17.16-16.454,6.14-5.729,11.49-10.432,16.5-15.478,5.53-5.569,5.85-11.346,1.35-16.026s-10.94-4.373-16.54,1.151c-5.05,4.984-9.82,10.248-15.45,16.16-5.62-5.891-10.4-11.12-15.43-16.109-5.55-5.524-12-5.9-16.52-1.26-4.6,4.715-4.11,10.75,1.64,16.5,4.88,4.886,9.99,9.537,16,15.236C1533.96,261.963,1528.66,266.722,1523.67,271.788Z" transform="translate(-1224)"/>
  </g>
</svg>
